# Made by me.
v 1.000000 1.000000 1.000000
v 1.000000 1.000000 -1.000000
v 1.000000 -1.000000 1.000000
v 1.000000 -1.000000 -1.000000
v -1.000000 1.000000 1.000000
v -1.000000 1.000000 -1.000000
v -1.000000 -1.000000 1.000000
v -1.000000 -1.000000 -1.000000

vt 0.000000 0.000000
vt 0.000000 1.000000
vt 1.000000 0.000000
vt 1.000000 1.000000

vn 0.000000 0.000000 1.000000
vn 0.000000 0.000000 -1.000000
vn 0.000000 1.000000 0.000000
vn 0.000000 -1.000000 0.000000
vn 1.000000 0.000000 0.000000
vn -1.000000 0.000000 0.000000

#frontface
f 1/4/1 5/2/1 7/1/1
f 1/4/1 7/1/1 3/3/1

#backface
f 2/2/2 4/1/2 8/3/2
f 2/2/2 8/3/2 6/4/2

#rightface
f 1/2/5 3/1/5 4/3/5
f 1/2/5 4/3/5 2/4/5

#leftface
f 5/4/6 8/1/6 7/3/6
f 5/4/6 6/2/6 8/1/6

#topface
f 6/2/3 5/1/3 1/3/3
f 6/2/3 1/3/3 2/4/3

#lowerface
f 8/4/4 4/2/4 3/1/4
f 8/4/4 3/1/4 7/3/4